<mxfile host="app.diagrams.net" modified="2023-08-09T17:11:24.777Z" agent="Mozilla/5.0 (Macintosh; Intel Mac OS X 10_15_7) AppleWebKit/537.36 (KHTML, like Gecko) Chrome/115.0.0.0 Safari/537.36" version="21.6.7" etag="xgy9IwfXGVQhlEr8fP98" type="github">
  <diagram name="Страница — 1" id="de85JVFHmP8NqLnUoWGZ">
    <mxGraphModel>
      <root>
        <mxCell id="0" />
        <mxCell id="1" parent="0" />
      </root>
    </mxGraphModel>
  </diagram>
</mxfile>
